<svg width="24" height="21" viewBox="0 0 24 21" fill="none" xmlns="http://www.w3.org/2000/svg">
<path fill-rule="evenodd" clip-rule="evenodd" d="M19.3846 19.0809C20.2343 19.0809 20.9231 18.4135 20.9231 17.5902V15.2052C20.9231 14.7111 21.3364 14.3108 21.8462 14.3108C22.356 14.3108 22.7693 14.7111 22.7693 15.2052V17.5902C22.7693 19.4015 21.254 20.8697 19.3846 20.8697H16.9232C16.4133 20.8697 16 20.4693 16 19.9754C16 19.4813 16.4133 19.0809 16.9232 19.0809H19.3846Z" fill="#E6F6FF"/>
<path fill-rule="evenodd" clip-rule="evenodd" d="M19.3846 1.78882C20.2343 1.78882 20.9231 2.45622 20.9231 3.2795V5.66459C20.9231 6.15856 21.3364 6.559 21.8462 6.559C22.356 6.559 22.7693 6.15856 22.7693 5.66459V3.2795C22.7693 1.46828 21.254 0 19.3846 0H16.9232C16.4133 0 16 0.400441 16 0.894412C16 1.38838 16.4133 1.78882 16.9232 1.78882H19.3846Z" fill="#E6F6FF"/>
<path fill-rule="evenodd" clip-rule="evenodd" d="M4.61117 19.0809C3.76151 19.0809 3.07271 18.4135 3.07271 17.5902V15.2052C3.07271 14.7111 2.65945 14.3108 2.14964 14.3108C1.63984 14.3108 1.22656 14.7111 1.22656 15.2052V17.5902C1.22656 19.4015 2.74191 20.8697 4.61117 20.8697H7.07272C7.58252 20.8697 7.9958 20.4693 7.9958 19.9754C7.9958 19.4813 7.58252 19.0809 7.07272 19.0809H4.61117Z" fill="#E6F6FF"/>
<path fill-rule="evenodd" clip-rule="evenodd" d="M4.61117 1.78882C3.76151 1.78882 3.07271 2.45622 3.07271 3.2795V5.6646C3.07271 6.15856 2.65945 6.559 2.14964 6.559C1.63984 6.559 1.22656 6.15856 1.22656 5.6646V3.2795C1.22656 1.46829 2.74191 0 4.61117 0H7.07272C7.58252 0 7.9958 0.400441 7.9958 0.894412C7.9958 1.38838 7.58252 1.78882 7.07272 1.78882H4.61117Z" fill="#E6F6FF"/>
<path fill-rule="evenodd" clip-rule="evenodd" d="M24 10.4347C24 10.9286 23.5867 11.329 23.077 11.329H0.923076C0.41328 11.329 0 10.9286 0 10.4347C0 9.94075 0.41328 9.54028 0.923076 9.54028H23.077C23.5867 9.54028 24 9.94075 24 10.4347Z" fill="#E6F6FF"/>
</svg>