<svg width="139" height="139" viewBox="0 0 139 139" fill="none" xmlns="http://www.w3.org/2000/svg">
<circle cx="69.5" cy="69.5" r="69.5" fill="#0573F0"/>
<path d="M44.164 64.376L39.936 80H34.644L32.18 69.864L29.632 80H24.368L20.112 64.376H24.9L27.112 75.548L29.744 64.376H34.812L37.472 75.492L39.656 64.376H44.164ZM45.0379 72.16C45.0379 70.5547 45.3366 69.1453 45.9339 67.932C46.5499 66.7187 47.3806 65.7853 48.4259 65.132C49.4712 64.4787 50.6379 64.152 51.9259 64.152C53.0272 64.152 53.9886 64.376 54.8099 64.824C55.6499 65.272 56.2939 65.86 56.7419 66.588V64.376H61.5299V80H56.7419V77.788C56.2752 78.516 55.6219 79.104 54.7819 79.552C53.9606 80 52.9992 80.224 51.8979 80.224C50.6286 80.224 49.4712 79.8973 48.4259 79.244C47.3806 78.572 46.5499 77.6293 45.9339 76.416C45.3366 75.184 45.0379 73.7653 45.0379 72.16ZM56.7419 72.188C56.7419 70.9933 56.4059 70.0507 55.7339 69.36C55.0806 68.6693 54.2779 68.324 53.3259 68.324C52.3739 68.324 51.5619 68.6693 50.8899 69.36C50.2366 70.032 49.9099 70.9653 49.9099 72.16C49.9099 73.3547 50.2366 74.3067 50.8899 75.016C51.5619 75.7067 52.3739 76.052 53.3259 76.052C54.2779 76.052 55.0806 75.7067 55.7339 75.016C56.4059 74.3253 56.7419 73.3827 56.7419 72.188ZM69.7818 59.28V80H64.9938V59.28H69.7818ZM81.9596 75.94V80H79.5236C77.7876 80 76.4343 79.58 75.4636 78.74C74.493 77.8813 74.0076 76.4907 74.0076 74.568V68.352H72.1036V64.376H74.0076V60.568H78.7956V64.376H81.9316V68.352H78.7956V74.624C78.7956 75.0907 78.9076 75.4267 79.1316 75.632C79.3556 75.8373 79.729 75.94 80.2516 75.94H81.9596ZM86.8666 80.224C86.0266 80.224 85.336 79.9813 84.7946 79.496C84.272 78.992 84.0106 78.376 84.0106 77.648C84.0106 76.9013 84.272 76.276 84.7946 75.772C85.336 75.268 86.0266 75.016 86.8666 75.016C87.688 75.016 88.36 75.268 88.8826 75.772C89.424 76.276 89.6946 76.9013 89.6946 77.648C89.6946 78.376 89.424 78.992 88.8826 79.496C88.36 79.9813 87.688 80.224 86.8666 80.224ZM94.937 62.752C94.097 62.752 93.4063 62.5093 92.865 62.024C92.3423 61.52 92.081 60.904 92.081 60.176C92.081 59.4293 92.3423 58.8133 92.865 58.328C93.4063 57.824 94.097 57.572 94.937 57.572C95.7583 57.572 96.4303 57.824 96.953 58.328C97.4943 58.8133 97.765 59.4293 97.765 60.176C97.765 60.904 97.4943 61.52 96.953 62.024C96.4303 62.5093 95.7583 62.752 94.937 62.752ZM97.317 64.376V80H92.529V64.376H97.317ZM99.8348 72.16C99.8348 70.5547 100.133 69.1453 100.731 67.932C101.347 66.7187 102.177 65.7853 103.223 65.132C104.268 64.4787 105.435 64.152 106.723 64.152C107.749 64.152 108.683 64.3667 109.523 64.796C110.381 65.2253 111.053 65.804 111.539 66.532V59.28H116.327V80H111.539V77.76C111.091 78.5067 110.447 79.104 109.607 79.552C108.785 80 107.824 80.224 106.723 80.224C105.435 80.224 104.268 79.8973 103.223 79.244C102.177 78.572 101.347 77.6293 100.731 76.416C100.133 75.184 99.8348 73.7653 99.8348 72.16ZM111.539 72.188C111.539 70.9933 111.203 70.0507 110.531 69.36C109.877 68.6693 109.075 68.324 108.123 68.324C107.171 68.324 106.359 68.6693 105.687 69.36C105.033 70.032 104.707 70.9653 104.707 72.16C104.707 73.3547 105.033 74.3067 105.687 75.016C106.359 75.7067 107.171 76.052 108.123 76.052C109.075 76.052 109.877 75.7067 110.531 75.016C111.203 74.3253 111.539 73.3827 111.539 72.188Z" fill="#E6F6FF"/>
</svg>
